#!OML:ASF H:\Terrain\Patient Classification 1\Walking\liu\liu.ASF
:FULLY-SPECIFIED
:DEGREES
257
root 8.79808 16.7725 6.82057 5.10788 5.48546 -2.15468
lowerback -5.12339 -4.23477 -0.323163
upperback -0.529481 -5.74296 4.18758
thorax 2.78344 -2.89666 4.06159
lowerneck -22.9399 -3.01487 -11.2628
upperneck 24.5101 -3.26446 10.6224
head 12.2751 -1.12589 5.41945
rclavicle -3.40916e-014 2.70347e-014
rhumerus -44.692 -1.25524 -75.55
rradius 22.9343
rwrist -7.54423
rhand -28.8939 -24.3551
rfingers 7.12502
rthumb -2.24929 -54.323
lclavicle -3.40916e-014 2.70347e-014
lhumerus -15.6056 -19.0331 88.7399
lradius 38.3051
lwrist 5.04099
lhand -14.0191 -29.1925
lfingers 7.12502
lthumb 12.1107 0.436973
rfemur -29.7248 -1.13158 26.9993
rtibia 34.4359
rfoot -10.173 4.03473
rtoes -10.5964
lfemur 0.551341 13.072 -13.4518
ltibia 51.6696
lfoot 4.94037 7.46709
ltoes -12.2139
258
root 8.7757 16.8143 6.98487 5.08295 5.51338 -2.76502
lowerback -4.87425 -4.11329 0.108199
upperback -0.656095 -5.59829 4.37564
thorax 2.47992 -2.8179 4.05273
lowerneck -22.5452 -3.11655 -11.3591
upperneck 24.4308 -3.44361 10.7201
head 12.1944 -1.21068 5.43635
rclavicle -2.5842e-015 1.19271e-014
rhumerus -44.3472 -0.69458 -76.1721
rradius 23.104
rwrist -8.14035
rhand -29.5185 -21.4956
rfingers 7.12502
rthumb -2.85247 -51.4563
lclavicle -2.5842e-015 1.19271e-014
lhumerus -16.4651 -18.5734 89.3908
lradius 37.2602
lwrist 4.70081
lhand -13.946 -28.8352
lfingers 7.12502
lthumb 12.1812 0.790166
rfemur -28.7837 -1.22753 27.8578
rtibia 33.605
rfoot -10.2311 3.98005
rtoes -9.90635
lfemur -1.66393 13.2689 -12.9207
ltibia 54.8789
lfoot 4.7421 9.07636
ltoes -6.41493
259
root 8.76657 16.8282 7.13731 5.07398 5.74555 -2.84909
lowerback -4.68745 -4.1055 0.127388
upperback -0.676874 -5.5841 4.41005
thorax 2.35465 -2.81022 4.09357
lowerneck -22.3601 -3.205 -11.5638
upperneck 24.3296 -3.57894 10.9554
head 12.1463 -1.2638 5.53594
rclavicle -4.95968e-014 4.77083e-015
rhumerus -44.0081 1.46907 -77.9132
rradius 23.8619
rwrist -9.73308
rhand -28.799 -22.6169
rfingers 7.12502
rthumb -2.15763 -52.5857
lclavicle -4.95968e-014 4.77083e-015
lhumerus -17.0533 -17.9936 89.8505
lradius 36.2256
lwrist 4.41675
lhand -13.6894 -28.4181
lfingers 7.12502
lthumb 12.4286 1.19234
rfemur -27.6154 -1.68045 28.0934
rtibia 32.7714
rfoot -10.3642 4.26106
rtoes -7.96233
lfemur -3.65963 13.249 -13.0313
ltibia 57.7668
lfoot 1.74779 10.9045
ltoes -8.40995
260
root 8.75713 16.8506 7.30982 5.00887 5.54725 -3.36164
lowerback -4.63709 -3.89197 0.566059
upperback -0.607061 -5.32606 4.57777
thorax 2.35593 -2.67832 4.04393
lowerneck -22.3295 -3.32128 -11.839
upperneck 24.1931 -3.72481 11.2492
head 12.1205 -1.31689 5.66957
rclavicle 5.27276e-014 -1.35174e-014
rhumerus -43.726 3.49851 -79.5712
rradius 24.9408
rwrist -11.1535
rhand -29.0268 -26.6677
rfingers 7.12502
rthumb -2.37758 -56.6342
lclavicle 5.27276e-014 -1.35174e-014
lhumerus -17.4491 -18.0837 90.3947
lradius 35.0404
lwrist 5.21099
lhand -13.9456 -28.2388
lfingers 7.12502
lthumb 12.1816 1.38647
rfemur -26.4049 -1.3015 28.7219
rtibia 32.0148
rfoot -10.7836 4.17259
rtoes -7.67928
lfemur -5.81124 13.3527 -12.6852
ltibia 60.2792
lfoot -1.14766 12.5672
ltoes -19.3979
261
root 8.76045 16.8842 7.50829 5.09412 4.8139 -3.2917
lowerback -5.05413 -3.53102 0.588585
upperback -0.412158 -4.86504 4.49964
thorax 2.74998 -2.44953 3.95165
lowerneck -22.3735 -3.41413 -11.8932
upperneck 24.0091 -3.85747 11.3808
head 12.0815 -1.36133 5.70057
rclavicle -7.5737e-014 1.98785e-014
rhumerus -43.0909 4.44615 -80.4453
rradius 25.6613
rwrist -11.9254
rhand -29.917 -28.6452
rfingers 7.12502
rthumb -3.23728 -58.6004
lclavicle -7.5737e-014 1.98785e-014
lhumerus -17.7077 -18.4322 90.8402
lradius 33.7311
lwrist 5.74983
lhand -13.8085 -27.9288
lfingers 7.12502
lthumb 12.3138 1.68863
rfemur -25.4193 -1.0162 28.7069
rtibia 31.422
rfoot -11.0501 4.56516
rtoes -7.93566
lfemur -7.28429 13.8723 -13.1294
ltibia 62.3309
lfoot -2.50432 13.4407
ltoes -17.9257
262
root 8.74422 16.9165 7.65698 5.22779 4.97966 -2.74995
lowerback -4.85939 -3.46057 -0.0298117
upperback -0.456981 -4.72523 4.31355
thorax 2.61903 -2.38536 4.12881
lowerneck -22.4545 -3.52836 -11.6324
upperneck 24.0821 -4.05201 11.1724
head 12.1433 -1.44866 5.54355
rclavicle 2.28602e-015 0
rhumerus -42.3364 4.60173 -80.7616
rradius 26.0033
rwrist -11.7318
rhand -28.8176 -29.6142
rfingers 7.12502
rthumb -2.17558 -59.5828
lclavicle 2.28602e-015 0
lhumerus -18.1837 -18.0458 91.27
lradius 32.4304
lwrist 5.04053
lhand -13.3637 -27.187
lfingers 7.12502
lthumb 12.7426 2.40415
rfemur -24.637 -1.18617 28.2005
rtibia 30.8308
rfoot -11.4469 4.52485
rtoes -8.69693
lfemur -9.45082 13.4395 -14.167
ltibia 64.2254
lfoot -0.0469028 13.6434
ltoes 1.10075
263
root 8.71948 16.931 7.78016 5.33307 4.83746 -2.79653
lowerback -4.24642 -3.28103 -0.239828
upperback -0.696582 -4.45339 4.35313
thorax 2.02728 -2.24572 4.3525
lowerneck -22.4287 -3.63543 -11.363
upperneck 24.2698 -4.23068 10.8621
head 12.2225 -1.54477 5.3512
rclavicle 5.91384e-015 2.54444e-014
rhumerus -41.6358 4.62885 -80.978
rradius 26.1198
rwrist -10.9708
rhand -27.9381 -28.5689
rfingers 7.12502
rthumb -1.3261 -58.5445
lclavicle 5.91384e-015 2.54444e-014
lhumerus -18.8948 -16.7235 91.7035
lradius 31.1791
lwrist 4.22882
lhand -12.8357 -26.6662
lfingers 7.12502
lthumb 13.2516 2.89259
rfemur -24.0287 -0.56748 28.3532
rtibia 30.2563
rfoot -11.7431 4.01101
rtoes -9.21481
lfemur -11.7758 13.3476 -14.5002
ltibia 65.9421
lfoot -0.879267 14.38
ltoes -1.51385
264
root 8.70247 16.9529 7.92276 5.32219 4.59753 -3.09801
lowerback -3.87797 -3.12124 -0.15131
upperback -0.748857 -4.23591 4.4622
thorax 1.75182 -2.13419 4.45343
lowerneck -22.406 -3.71371 -11.3075
upperneck 24.3071 -4.33902 10.761
head 12.2437 -1.60161 5.28418
rclavicle 5.34731e-014 -7.95139e-016
rhumerus -40.7966 5.15099 -81.467
rradius 26.2636
rwrist -10.789
rhand -28.752 -25.0299
rfingers 7.12502
rthumb -2.11215 -54.9992
lclavicle 5.34731e-014 -7.95139e-016
lhumerus -19.356 -15.144 91.8636
lradius 30.0069
lwrist 3.52372
lhand -11.7449 -26.5649
lfingers 7.12502
lthumb 14.3028 2.92246
rfemur -23.2155 0.0360182 28.7644
rtibia 29.7306
rfoot -11.9037 3.72728
rtoes -9.20152
lfemur -13.7772 13.3912 -14.4999
ltibia 67.4259
lfoot -4.40479 14.9335
ltoes -16.5473
265
root 8.71038 17.0062 8.14582 5.29838 4.43576 -3.0324
lowerback -4.57761 -3.00539 -0.063464
upperback -0.445046 -4.11031 4.34554
thorax 2.43195 -2.07775 4.24413
lowerneck -22.5255 -3.79837 -11.3713
upperneck 24.283 -4.4491 10.8541
head 12.2778 -1.64158 5.31322
rclavicle 4.37823e-014 -4.29375e-014
rhumerus -39.988 6.46976 -82.4085
rradius 26.8241
rwrist -11.6444
rhand -29.7361 -24.4474
rfingers 7.12502
rthumb -3.06262 -54.4051
lclavicle 4.37823e-014 -4.29375e-014
lhumerus -19.6297 -14.219 91.9093
lradius 28.8862
lwrist 2.98966
lhand -10.8101 -26.204
lfingers 7.12502
lthumb 15.2034 3.21739
rfemur -21.8745 -0.482672 28.7301
rtibia 29.1548
rfoot -12.249 4.57242
rtoes -8.7287
lfemur -14.8876 13.1901 -14.9852
ltibia 68.1977
lfoot -6.48384 14.9609
ltoes -20.2298
266
root 8.68877 17.0358 8.30532 5.60624 4.08431 -2.53818
lowerback -4.73002 -2.80419 -0.724707
upperback -0.455951 -3.80674 4.18361
thorax 2.51469 -1.93306 4.46347
lowerneck -22.7033 -3.97942 -11.4613
upperneck 24.4507 -4.64946 10.7915
head 12.4083 -1.74446 5.27789
rclavicle -7.60351e-015 1.19271e-014
rhumerus -39.4278 8.16522 -83.5253
rradius 27.6502
rwrist -12.7757
rhand -30.3053 -27.7745
rfingers 7.12502
rthumb -3.61229 -57.7236
lclavicle -7.60351e-015 1.19271e-014
lhumerus -20.0907 -14.2465 92.0991
lradius 27.8743
lwrist 3.17515
lhand -10.0095 -25.3504
lfingers 7.12502
lthumb 15.9745 4.01094
rfemur -21.255 0.179031 28.2706
rtibia 28.5916
rfoot -12.4743 4.11626
rtoes -8.676
lfemur -16.8995 13.1465 -15.9743
ltibia 68.9177
lfoot -6.13648 14.4529
ltoes -13.8792
267
root 8.68616 17.069 8.4727 5.88958 3.80081 -2.10827
lowerback -4.95767 -2.61759 -1.03827
upperback -0.547437 -3.53455 3.95657
thorax 2.52874 -1.79756 4.41664
lowerneck -22.5543 -4.05993 -11.4664
upperneck 24.5829 -4.75878 10.6862
head 12.4432 -1.81195 5.22248
rclavicle 1.63003e-014 1.27222e-014
rhumerus -38.7866 8.82808 -84.0866
rradius 28.0682
rwrist -12.8062
rhand -29.8495 -29.0703
rfingers 7.12502
rthumb -3.1721 -59.0265
lclavicle 1.63003e-014 1.27222e-014
lhumerus -20.8058 -14.0989 92.2839
lradius 26.9782
lwrist 3.23451
lhand -8.84117 -24.0912
lfingers 7.12502
lthumb 17.0993 5.17632
rfemur -20.5847 0.275318 27.8576
rtibia 28.1121
rfoot -12.7633 4.13394
rtoes -9.63276
lfemur -18.7012 12.9481 -16.9821
ltibia 69.3148
lfoot -4.41189 14.0835
ltoes 0.643209
